<?xml version="1.0" encoding="utf-8"?><!-- Uploaded to: SVG Repo, www.svgrepo.com, Generator: SVG Repo Mixer Tools -->
<svg fill="#000000" width="800px" height="800px" viewBox="0 0 24 24" id="gallery-collections-left" data-name="Flat Line" xmlns="http://www.w3.org/2000/svg" class="icon flat-line"><path id="secondary" d="M8,4H20a1,1,0,0,1,1,1v8.44L16.24,8.68l-3.48,3.49L9.92,9.33,7,12.26V5A1,1,0,0,1,8,4Z" style="fill: rgb(44, 169, 188); stroke-width: 2;"></path><path id="primary" d="M3,8V19a1,1,0,0,0,1,1H19" style="fill: none; stroke: rgb(0, 0, 0); stroke-linecap: round; stroke-linejoin: round; stroke-width: 2;"></path><path id="primary-2" data-name="primary" d="M16.24,8.68,21,13.44V15a1,1,0,0,1-1,1H16.59l-3.83-3.83ZM7,12.26V15a1,1,0,0,0,1,1h8.59L9.92,9.33ZM21,5V15a1,1,0,0,1-1,1H8a1,1,0,0,1-1-1V5A1,1,0,0,1,8,4H20A1,1,0,0,1,21,5Z" style="fill: none; stroke: rgb(0, 0, 0); stroke-linecap: round; stroke-linejoin: round; stroke-width: 2;"></path></svg>