<?xml version="1.0" encoding="iso-8859-1"?>
<!-- Uploaded to: SVG Repo, www.svgrepo.com, Generator: SVG Repo Mixer Tools -->
<svg fill="#000000" version="1.1" id="Layer_1" xmlns="http://www.w3.org/2000/svg" xmlns:xlink="http://www.w3.org/1999/xlink" 
	 viewBox="0 0 496 496" xml:space="preserve">
<g>
	<g>
		<g>
			<path d="M482.344,264.968C491.024,256.288,496,244.272,496,232c0-12.272-4.976-24.288-13.656-32.968L416,132.688L340.688,208
				l32,32L240,372.688l-32-32L132.688,416l66.344,66.344C207.712,491.024,219.728,496,232,496c12.272,0,24.288-4.976,32.968-13.656
				l18.456-18.456C306.824,484.576,336.504,496,368,496c70.576,0,128-57.424,128-128c0-31.504-11.424-61.192-32.112-84.576
				L482.344,264.968z M363.312,208L416,155.312L428.688,168L376,220.688L363.312,208z M155.312,416L208,363.312L220.688,376
				L168,428.688L155.312,416z M271.832,452.848l-18.176,18.184C247.952,476.736,240.064,480,232,480
				c-8.064,0-15.952-3.264-21.656-8.968L179.312,440L232,387.312l8,8L395.312,240l-8-8L440,179.312l31.032,31.032
				C476.736,216.048,480,223.936,480,232c0,8.064-3.264,15.952-8.968,21.656l-18.176,18.176L271.832,452.848z M480,368
				c0,61.76-50.24,112-112,112c-27.232,0-52.984-9.656-73.344-27.344l158-158C470.344,315.008,480,340.76,480,368z"/>
			<path d="M208,336v-29.792c10.232-2.96,20.096-7.048,29.44-12.208l21.072,21.08l56.568-56.568L294,237.44
				c5.168-9.344,9.248-19.2,12.208-29.44H336v-80h-29.792c-2.96-10.232-7.048-20.096-12.208-29.44l21.08-21.072L258.512,20.92
				L237.44,42c-9.344-5.168-19.2-9.248-29.44-12.208V0h-80v29.792C117.768,32.752,107.904,36.84,98.56,42L77.488,20.92L20.92,77.488
				L42,98.56c-5.168,9.344-9.248,19.2-12.208,29.44H0v80h29.792c2.96,10.232,7.048,20.096,12.208,29.44l-21.08,21.072l56.568,56.568
				L98.56,294c9.344,5.168,19.2,9.248,29.44,12.208V336H208z M101.432,277.168l-5.376-3.28l-18.56,18.568l-33.944-33.944
				l18.568-18.56l-3.28-5.376c-6.92-11.328-12.008-23.592-15.12-36.448L42.24,192H16v-48h26.24l1.48-6.128
				c3.112-12.848,8.192-25.12,15.12-36.448l3.28-5.376l-18.568-18.56l33.944-33.944l18.56,18.568l5.376-3.28
				c11.328-6.92,23.592-12.008,36.448-15.12L144,42.24V16h48v26.24l6.128,1.48c12.848,3.112,25.12,8.192,36.448,15.12l5.376,3.28
				l18.56-18.568l33.944,33.944l-18.568,18.56l3.28,5.376c6.92,11.328,12.008,23.592,15.12,36.448l1.472,6.12H320v48h-26.24
				l-1.48,6.128c-3.112,12.848-8.192,25.12-15.12,36.448l-3.28,5.376l18.568,18.56l-33.944,33.944l-18.56-18.568l-5.376,3.28
				c-11.328,6.92-23.592,12.008-36.448,15.12L192,293.76V320h-48v-26.24l-6.128-1.48
				C125.024,289.168,112.76,284.088,101.432,277.168z"/>
			<path d="M256,168c0-48.52-39.48-88-88-88s-88,39.48-88,88s39.48,88,88,88S256,216.52,256,168z M96,168c0-39.704,32.296-72,72-72
				s72,32.296,72,72s-32.296,72-72,72S96,207.704,96,168z"/>
			
				<rect x="231.995" y="324.69" transform="matrix(-0.7071 0.7071 -0.7071 -0.7071 647.2864 403.8884)" width="16" height="22.624"/>
			
				<rect x="324.683" y="231.998" transform="matrix(-0.7071 -0.7071 0.7071 -0.7071 403.8752 647.2874)" width="22.624" height="16"/>
		</g>
	</g>
</g>
</svg>