<?xml version="1.0" encoding="utf-8"?>
<!-- Uploaded to: SVG Repo, www.svgrepo.com, Generator: SVG Repo Mixer Tools -->
<svg width="800px" height="800px" viewBox="0 0 1024 1024" class="icon"  version="1.1" xmlns="http://www.w3.org/2000/svg"><path d="M553.89 875.24c0.15-0.02 0.29-0.05 0.44-0.07l-0.19-0.19-0.25 0.26z" fill="#0F1F3C" /><path d="M801.15 109.42v72.95h37.76v109.42H182.38V182.37h36.12v-72.95H109.43v838.9h474.16v-72.95H182.38V364.74h729.48V109.42z" fill="#0F1F3C" /><path d="M364.75 109.42h291.74v72.95H364.75zM255.33 72.95h72.95v145.9h-72.95zM693.01 72.95h72.95v145.9h-72.95zM620.06 583.58v364.74h291.79V583.58l-145.9-182.37-145.89 182.37z m198.04-0.41H713.8l52.15-65.19 52.15 65.19zM693 875.37V656.12h145.9v219.25H693zM218.5 437.31h364.74v72.95H218.5zM218.83 583.55h254.34v72.95H218.83zM218.83 729.79h255.35v72.95H218.83z" fill="#0F1F3C" /></svg>